<svg height="512pt" viewBox="0 0 512 512" width="512pt" xmlns="http://www.w3.org/2000/svg"><path d="m512 256c0 103.875-61.867188 193.304688-150.769531 233.441406-5.984375 2.707032-12.097657 5.183594-18.328125 7.429688-25.167969 9.089844-52.179688 14.335937-80.320313 15.046875-2.183593.050781-4.378906.082031-6.582031.082031-32.128906 0-62.871094-5.914062-91.210938-16.71875-23.214843-8.859375-44.804687-21.003906-64.207031-35.851562-8.765625-6.707032-17.085937-13.96875-24.910156-21.730469-46.738281-46.375-75.671875-110.65625-75.671875-181.699219 0-141.386719 114.613281-256 256-256s256 114.613281 256 256zm0 0" fill="#512375"/><path d="m342.902344 496.871094c-25.167969 9.089844-52.179688 14.335937-80.320313 15.046875-2.183593.050781-4.378906.082031-6.582031.082031-32.128906 0-62.871094-5.914062-91.210938-16.71875-23.214843-8.859375-44.804687-21.003906-64.207031-35.851562 3.929688-44.6875 18.820313-82.023438 64.207031-87.144532 1.171876-.144531 2.351563-.257812 3.542969-.355468 3.011719-.238282 6.039063-.363282 9.101563-.363282h72.484375c4.273437 0 8.507812.230469 12.664062.710938 4.160157.457031 8.246094 1.160156 12.246094 2.078125 49.488281 11.316406 51.328125 51.136719 51.328125 104.03125zm0 0" fill="#f2efea"/><path d="m164.789062 372.285156v122.996094c-33.695312-12.863281-63.976562-32.632812-89.117187-57.582031 15.695313-35.296875 49.203125-60.910157 89.117187-65.414063zm0 0" fill="#dd104f"/><path d="m361.230469 482.859375v6.582031c-30.21875 13.644532-63.550781 21.585938-98.648438 22.476563v-139.640625c4.160157.457031 8.246094 1.160156 12.246094 2.078125 49.488281 11.316406 86.402344 55.609375 86.402344 108.503906zm0 0" fill="#fb3a4a"/><path d="m213.671875 417.125-50.109375 27.847656-15.242188-70.898437 31.136719-18.339844" fill="#d8d4ce"/><path d="m213.671875 417.125 50.105469 27.847656 15.246094-70.898437-31.136719-18.339844" fill="#d8d4ce"/><path d="m253.390625 328.691406v48.730469c0 17.84375-11.765625 32.921875-27.96875 37.933594-3.710937 1.148437-7.664063 1.773437-11.75 1.773437-21.929687 0-39.703125-17.773437-39.703125-39.707031v-48.730469zm0 0" fill="#eaa27f"/><path d="m253.390625 374.335938v3.085937c0 17.84375-11.765625 32.921875-27.96875 37.933594-14.621094-4.496094-25.613281-17.207031-27.644531-32.761719 2.652344.164062 5.320312.246094 8 .246094 7.515625 0 14.878906-.597656 22.054687-1.773438 8.839844-1.421875 17.378907-3.699218 25.558594-6.730468zm0 0" fill="#f6ba97"/><path d="m102.953125 248.820312c0 18.382813-13.429687 33.628907-31.011719 36.457032-1.925781.3125-3.898437.472656-5.917968.472656-20.398438 0-36.925782-16.527344-36.925782-36.929688 0-20.398437 16.527344-36.925781 36.925782-36.925781 2.019531 0 3.996093.160157 5.917968.472657 17.585938 2.828124 31.011719 18.070312 31.011719 36.453124zm0 0" fill="#f6ba97"/><path d="m102.953125 248.820312c0 18.382813-13.429687 33.628907-31.011719 36.457032-3.195312-11.617188-4.902344-23.839844-4.902344-36.457032 0-12.613281 1.707032-24.839843 4.902344-36.453124 17.585938 2.828124 31.011719 18.070312 31.011719 36.453124zm0 0" fill="#eaa27f"/><path d="m79.222656 248.820312c0 7.289063-5.910156 13.199219-13.199218 13.199219-7.289063 0-13.195313-5.910156-13.195313-13.199219 0-7.289062 5.90625-13.195312 13.195313-13.195312 7.289062 0 13.199218 5.90625 13.199218 13.195312zm0 0" fill="#eaa27f"/><path d="m324.402344 248.820312c0 18.382813 13.429687 33.628907 31.015625 36.457032 1.921875.3125 3.898437.472656 5.914062.472656 20.402344 0 36.929688-16.527344 36.929688-36.929688 0-20.398437-16.527344-36.925781-36.929688-36.925781-2.015625 0-3.992187.160157-5.914062.472657-17.585938 2.828124-31.015625 18.070312-31.015625 36.453124zm0 0" fill="#f6ba97"/><path d="m324.402344 248.820312c0 18.382813 13.429687 33.628907 31.015625 36.457032 3.191406-11.617188 4.898437-23.839844 4.898437-36.457032 0-12.613281-1.703125-24.839843-4.898437-36.453124-17.585938 2.828124-31.015625 18.070312-31.015625 36.453124zm0 0" fill="#eaa27f"/><path d="m374.53125 248.820312c0 7.289063-5.910156 13.199219-13.199219 13.199219-7.289062 0-13.199219-5.910156-13.199219-13.199219 0-7.289062 5.910157-13.195312 13.199219-13.195312 7.289063 0 13.199219 5.90625 13.199219 13.195312zm0 0" fill="#eaa27f"/><path d="m351.078125 176.878906v52.320313c0 68.371093-49.949219 125.09375-115.351563 135.617187-.222656.035156-.453124.074219-.671874.109375-6.957032 1.113281-14.097657 1.664063-21.382813 1.664063-75.878906 0-137.390625-61.515625-137.390625-137.390625v-52.324219c0-15.976562 2.726562-31.332031 7.761719-45.597656 18.789062-53.46875 69.742187-91.804688 129.628906-91.804688h.011719c7.273437 0 14.425781.5625 21.394531 1.664063 65.71875 10.269531 116 67.136719 116 135.742187zm0 0" fill="#eaa27f"/><path d="m351.078125 176.878906v52.320313c0 68.371093-49.949219 125.09375-115.351563 135.617187-.222656.035156-.453124.074219-.671874.109375-65.71875-10.265625-115.988282-67.136719-115.988282-135.726562v-52.324219c0-68.601562 50.277344-125.472656 116.011719-135.742188 65.71875 10.273438 116 67.140626 116 135.746094zm0 0" fill="#f6ba97"/><g fill="#eaa27f"><path d="m307.195312 265.273438c0 9.453124-7.660156 17.113281-17.113281 17.113281s-17.113281-7.660157-17.113281-17.113281c0-9.453126 7.660156-17.113282 17.113281-17.113282s17.113281 7.660156 17.113281 17.113282zm0 0"/><path d="m154.390625 265.273438c0 9.453124-7.664063 17.113281-17.113281 17.113281-9.453125 0-17.117188-7.660157-17.117188-17.113281 0-9.453126 7.664063-17.113282 17.117188-17.113282 9.449218 0 17.113281 7.660156 17.113281 17.113282zm0 0"/><path d="m287.464844 217.59375c0-12.601562-10.21875-22.820312-22.820313-22.820312-12.605469 0-22.820312 10.21875-22.820312 22.820312"/><path d="m185.542969 217.59375c0-12.601562-10.214844-22.820312-22.820313-22.820312-12.601562 0-22.820312 10.21875-22.820312 22.820312"/></g><path d="m178.308594 227.308594c0 8.609375-6.976563 15.585937-15.585938 15.585937s-15.585937-6.976562-15.585937-15.585937 6.976562-15.585938 15.585937-15.585938 15.585938 6.976563 15.585938 15.585938zm0 0" fill="#2f373b"/><path d="m280.230469 227.308594c0 8.609375-6.976563 15.585937-15.585938 15.585937s-15.585937-6.976562-15.585937-15.585937 6.976562-15.585938 15.585937-15.585938 15.585938 6.976563 15.585938 15.585938zm0 0" fill="#2f373b"/><path d="m229.269531 266.554688h-31.171875c-3.714844 0-6.722656-3.011719-6.722656-6.726563 0-3.710937 3.007812-6.722656 6.722656-6.722656h31.171875c3.714844 0 6.726563 3.011719 6.726563 6.722656-.003906 3.714844-3.011719 6.726563-6.726563 6.726563zm0 0" fill="#eaa27f"/><path d="m213.683594 309.089844c-11.503906 0-23.011719-2.882813-33.5-8.648438-2.957032-1.625-4.035156-5.339844-2.410156-8.300781 1.628906-2.957031 5.34375-4.035156 8.300781-2.410156 17.289062 9.503906 37.929687 9.503906 55.21875 0 2.953125-1.625 6.671875-.546875 8.300781 2.410156 1.625 2.960937.546875 6.675781-2.414062 8.300781-10.484376 5.765625-21.992188 8.648438-33.496094 8.648438zm0 0" fill="#eaa27f"/><path d="m175.132812 224.558594c0 3.6875-2.992187 6.679687-6.679687 6.679687s-6.679687-2.992187-6.679687-6.679687 2.992187-6.679688 6.679687-6.679688 6.679687 2.992188 6.679687 6.679688zm0 0" fill="#fff"/><path d="m277.820312 224.558594c0 3.6875-2.992187 6.679687-6.679687 6.679687-3.691406 0-6.679687-2.992187-6.679687-6.679687s2.988281-6.679688 6.679687-6.679688c3.6875 0 6.679687 2.992188 6.679687 6.679688zm0 0" fill="#fff"/><path d="m351.078125 189.554688c-45.976563 0-63.226563-63.238282-63.226563-63.238282s-48.09375 45.648438-122.246093 40.757813c-30.78125-2.03125-50.339844 6.882812-62.675781 18.019531-10.71875 9.679688-16 21.027344-18.472657 28.300781-2.015625 5.953125-8.996093 8.910157-14.421875 5.746094-2.3125-1.347656-4.011718-3.582031-4.011718-7.25 0-11.40625 10.257812-35.011719 10.257812-35.011719l-18.25-4.914062c-8.007812-55.425782 30.558594-81.90625 30.558594-81.90625l-15.085938-2.039063c16.308594-58.679687 84.765625-56.234375 84.765625-56.234375l-9.777343-18.742187c51.320312-17.652344 81.339843 9.695312 82.28125 10.574219h.015624l.011719.015624 7.335938-23.632812c80.679687 20.378906 80.679687 65.195312 80.679687 65.195312l17.933594-27.703124c61.929688 80.597656 14.328125 152.0625 14.328125 152.0625zm0 0" fill="#fecf32"/><path d="m183.527344 26.894531 7.335937 12.222657s-33.410156 6.519531-39.925781 39.9375l21.183594-2.445313s-46.453125 19.964844-46.453125 42.371094l42.347656 1.234375c-1.785156.609375-58.570313 17.921875-65.085937 64.875-10.71875 9.683594-16 21.027344-18.46875 28.300781-2.019532 5.953125-9 8.914063-14.425782 5.746094-2.3125-1.34375-4.011718-3.582031-4.011718-7.25 0-11.402344 10.257812-35.011719 10.257812-35.011719l-18.25-4.914062c-8.007812-55.425782 30.558594-81.902344 30.558594-81.902344l-15.082032-2.042969c16.304688-58.675781 84.765626-56.234375 84.765626-56.234375l-9.78125-18.738281c51.320312-17.652344 81.34375 9.695312 82.285156 10.574219-.75-.378907-20.871094-10.316407-47.25 3.277343zm0 0" fill="#fdae2f"/><path d="m386.148438 282.957031c0 5.800781-4.703126 10.5-10.5 10.5-5.800782 0-10.5-4.699219-10.5-10.5 0-5.796875 4.699218-10.5 10.5-10.5 5.796874 0 10.5 4.703125 10.5 10.5zm0 0" fill="#fb3a4a"/><path d="m62.21875 282.957031c0 5.800781-4.699219 10.5-10.5 10.5-5.796875 0-10.5-4.699219-10.5-10.5 0-5.796875 4.703125-10.5 10.5-10.5 5.800781 0 10.5 4.703125 10.5 10.5zm0 0" fill="#fb3a4a"/><path d="m465.335938 403.394531c-33.511719 47.511719-82.796876 83.109375-140.246094 99.171875-27.566406-16.386718-46.039063-46.46875-46.039063-80.867187 0-51.929688 42.109375-94.039063 94.039063-94.039063 45.675781 0 83.730468 32.558594 92.246094 75.734375zm0 0" fill="#3fc37c"/><path d="m420.109375 407.59375h-32.914063v-32.914062h-28.210937v32.914062h-32.914063v28.210938h32.914063v32.910156h28.210937v-32.910156h32.914063zm0 0" fill="#fff"/></svg>